<svg viewBox="0 0 20 20" fill="none" xmlns="http://www.w3.org/2000/svg">
<path d="M9.39815 7.94167L7.33981 10L9.39815 12.0583C9.48042 12.1347 9.54056 12.2319 9.57224 12.3396C9.60392 12.4473 9.60596 12.5616 9.57815 12.6703C9.55034 12.7791 9.4937 12.8784 9.41421 12.9577C9.33473 13.0369 9.23532 13.0933 9.12648 13.1208C9.01783 13.1487 8.90369 13.1467 8.79605 13.1152C8.68842 13.0837 8.59127 13.0237 8.51481 12.9417L6.01481 10.4417C5.89777 10.3245 5.83203 10.1656 5.83203 10C5.83203 9.83438 5.89777 9.67553 6.01481 9.55834L8.51481 7.05834C8.59121 6.97607 8.68838 6.91593 8.79608 6.88425C8.90379 6.85257 9.01805 6.85053 9.12682 6.87834C9.23559 6.90615 9.33484 6.96278 9.41413 7.04227C9.49341 7.12176 9.54979 7.22117 9.57731 7.33001C9.60516 7.43865 9.60322 7.5528 9.57169 7.66043C9.54016 7.76807 9.48021 7.86522 9.39815 7.94167Z" fill="currentColor"/>
<path d="M3.1263 1.66675H16.8763C17.6813 1.66675 18.3346 2.32008 18.3346 3.12508V16.8751C18.3346 17.2619 18.181 17.6328 17.9075 17.9063C17.634 18.1798 17.2631 18.3334 16.8763 18.3334H3.1263C2.73953 18.3334 2.3686 18.1798 2.0951 17.9063C1.82161 17.6328 1.66797 17.2619 1.66797 16.8751V3.12508C1.66797 2.32008 2.3213 1.66675 3.1263 1.66675ZM2.91797 3.12508V16.8751C2.91797 16.9901 3.0113 17.0834 3.1263 17.0834H12.5013V2.91675H3.1263C3.07105 2.91675 3.01806 2.9387 2.97899 2.97777C2.93992 3.01684 2.91797 3.06983 2.91797 3.12508ZM13.7513 17.0834H16.8763C16.9316 17.0834 16.9845 17.0615 17.0236 17.0224C17.0627 16.9833 17.0846 16.9303 17.0846 16.8751V3.12508C17.0846 3.06983 17.0627 3.01684 17.0236 2.97777C16.9845 2.9387 16.9316 2.91675 16.8763 2.91675H13.7513V17.0834Z" fill="currentColor"/>
</svg>
