<svg viewBox="0 0 20 20" fill="none" xmlns="http://www.w3.org/2000/svg">
<path d="M10.6019 7.94167L12.6602 10L10.6019 12.0583C10.5196 12.1347 10.4594 12.2319 10.4278 12.3396C10.3961 12.4473 10.394 12.5616 10.4219 12.6703C10.4497 12.7791 10.5063 12.8784 10.5858 12.9577C10.6653 13.0369 10.7647 13.0933 10.8735 13.1208C10.9822 13.1487 11.0963 13.1467 11.2039 13.1152C11.3116 13.0837 11.4087 13.0237 11.4852 12.9417L13.9852 10.4417C14.1022 10.3245 14.168 10.1656 14.168 10C14.168 9.83438 14.1022 9.67553 13.9852 9.55834L11.4852 7.05834C11.4088 6.97607 11.3116 6.91593 11.2039 6.88425C11.0962 6.85257 10.982 6.85053 10.8732 6.87834C10.7644 6.90615 10.6652 6.96278 10.5859 7.04227C10.5066 7.12176 10.4502 7.22117 10.4227 7.33001C10.3948 7.43865 10.3968 7.5528 10.4283 7.66043C10.4598 7.76807 10.5198 7.86522 10.6019 7.94167Z" fill="currentColor"/>
<path d="M16.8737 1.66675H3.1237C2.3187 1.66675 1.66537 2.32008 1.66537 3.12508V16.8751C1.66537 17.2619 1.81901 17.6328 2.0925 17.9063C2.36599 18.1798 2.73692 18.3334 3.1237 18.3334H16.8737C17.2605 18.3334 17.6314 18.1798 17.9049 17.9063C18.1784 17.6328 18.332 17.2619 18.332 16.8751V3.12508C18.332 2.32008 17.6787 1.66675 16.8737 1.66675ZM17.082 3.12508V16.8751C17.082 16.9901 16.9887 17.0834 16.8737 17.0834H7.4987V2.91675H16.8737C16.929 2.91675 16.9819 2.9387 17.021 2.97777C17.0601 3.01684 17.082 3.06983 17.082 3.12508ZM6.2487 17.0834H3.1237C3.06845 17.0834 3.01545 17.0615 2.97638 17.0224C2.93731 16.9833 2.91537 16.9303 2.91537 16.8751V3.12508C2.91537 3.06983 2.93731 3.01684 2.97638 2.97777C3.01545 2.9387 3.06845 2.91675 3.1237 2.91675H6.2487V17.0834Z" fill="currentColor"/>
</svg>
